<?xml version="1.0" encoding="utf-8"?>
<!-- Generator: Adobe Illustrator 24.2.0, SVG Export Plug-In . SVG Version: 6.00 Build 0)  -->
<svg version="1.1" id="Layer_1" xmlns="http://www.w3.org/2000/svg" xmlns:xlink="http://www.w3.org/1999/xlink" x="0px" y="0px"
	 viewBox="0 0 407.8 272.5" style="enable-background:new 0 0 407.8 272.5;" xml:space="preserve">
<style type="text/css">
	.st0{fill:#FF0000;}
</style>
<g id="Layer_2_1_">
	<g id="Layer_1-2">
		<path class="st0" d="M57.9,223.2c-9.4,2.1-18.3,2.5-27.2-0.4c-14-4.6-23.1-14.2-27.7-27.9c-5.6-16.7-3.1-33.1,4.1-48.7
			c8.2-18.2,22.1-33.3,39.5-43c10.8-6.1,22.5-9.5,35.1-8.7c3.2,0.4,6.5,0.9,9.7,1.6c0.6-4.5,1-9.2,1.8-13.8
			c2.2-13.3,8-25.1,16.1-35.8c13.7-18.1,32.3-31.9,53.6-39.7c19.3-7.2,39.2-9.6,59.1-2.4c16.9,6.1,26.9,18.3,30,36.1
			c0.3,1.5,0.4,2.9,0.8,5c1-1.3,1.6-2.3,2.4-3.2c11.5-15.5,26.4-25.7,45.6-28.8c14-2.3,27.7-1.4,40.8,4.6
			c24.8,11.5,30.3,37.4,18.5,56.7c-0.3,0.5-0.5,1-0.9,1.8c2.6,0.3,5.1,0.7,7.5,0.9c16.1,1.7,35.8,15.1,40,34.9
			c2.1,10,1.4,19.8-0.7,29.7c-3.8,17.6-10.8,33.7-23.3,47c-9.1,9.5-20.2,17-32.5,21.9c-10.8,4.4-21.9,7.3-33.6,7.6
			c-3.7,0-7.3-0.2-11-0.6c-1.4-0.3-2.8,0.5-3.3,1.8c-13.1,23.7-32.5,39.9-58.2,48.4c-15.8,5.4-32.8,6.1-49,2.1
			c-13.8-3.2-25.4-12.3-31.9-24.8l-1.6-2.9c-1.1,1.3-2,2.3-2.9,3.3c-12,13.3-26.3,22.7-44.2,25.7c-12.9,2.2-25.7,1.5-37.8-4.5
			C63.3,260.4,55,245.1,57,230.4C57.4,228.1,57.6,225.8,57.9,223.2z"/>
	</g>
</g>
</svg>
