<?xml version="1.0" encoding="utf-8"?>
<!-- Generator: Adobe Illustrator 24.2.0, SVG Export Plug-In . SVG Version: 6.00 Build 0)  -->
<svg version="1.1" id="Layer_1" xmlns="http://www.w3.org/2000/svg" xmlns:xlink="http://www.w3.org/1999/xlink" x="0px" y="0px"
	 viewBox="0 0 90 1080" style="enable-background:new 0 0 90 1080;" xml:space="preserve">
<style type="text/css">
	.st0{fill:#EE6A5A;}
</style>
<rect y="0" class="st0" width="45" height="45"/>
<rect x="45" y="45" class="st0" width="45" height="45"/>
<rect y="90" class="st0" width="45" height="45"/>
<rect x="45" y="135" class="st0" width="45" height="45"/>
<rect y="180" class="st0" width="45" height="45"/>
<rect x="45" y="225" class="st0" width="45" height="45"/>
<rect y="270" class="st0" width="45" height="45"/>
<rect x="45" y="315" class="st0" width="45" height="45"/>
<rect y="360" class="st0" width="45" height="45"/>
<rect x="45" y="405" class="st0" width="45" height="45"/>
<rect y="450" class="st0" width="45" height="45"/>
<rect x="45" y="495" class="st0" width="45" height="45"/>
<rect y="540" class="st0" width="45" height="45"/>
<rect x="45" y="585" class="st0" width="45" height="45"/>
<rect y="630" class="st0" width="45" height="45"/>
<rect x="45" y="675" class="st0" width="45" height="45"/>
<rect y="720" class="st0" width="45" height="45"/>
<rect x="45" y="765" class="st0" width="45" height="45"/>
<rect y="810" class="st0" width="45" height="45"/>
<rect x="45" y="855" class="st0" width="45" height="45"/>
<rect y="900" class="st0" width="45" height="45"/>
<rect x="45" y="945" class="st0" width="45" height="45"/>
<rect y="990" class="st0" width="45" height="45"/>
<rect x="45" y="1035" class="st0" width="45" height="45"/>
</svg>
