<?xml version="1.0" encoding="utf-8"?>
<!-- Generator: Adobe Illustrator 25.3.1, SVG Export Plug-In . SVG Version: 6.00 Build 0)  -->
<svg version="1.1" id="Layer_1" xmlns="http://www.w3.org/2000/svg" xmlns:xlink="http://www.w3.org/1999/xlink" x="0px" y="0px"
	 viewBox="0 0 211.1 218.3" style="enable-background:new 0 0 211.1 218.3;" xml:space="preserve">
<style type="text/css">
	.st0{fill:#EE5A7A;}
</style>
<g id="Layer_2_1_">
	<g id="Layer_1-2">
		<path class="st0" d="M86.5,218.3c-18.9-0.8-37.8-5.1-54.3-16.7c-16.1-11.3-26-26.8-30-46C-4,126,3.5,98.7,17.5,73
			c14.1-25.9,34-46.8,59.6-61.6C84.4,7.2,92.2,4,100,0.7c2.1-0.9,4.9-0.7,7.3-0.5c1.9,0,3.5,1.6,3.5,3.5c0,0.3,0,0.6-0.1,0.8
			c-0.3,2.2-1,4.3-2.1,6.2C98,28.2,90.9,46.9,88.5,67.2c-1.7,14.6-1.1,29.2,5.1,42.9c5,11.1,13.7,20.3,24.5,25.9
			c17.2,9.3,35.9,11.3,54.9,9.8c9.7-0.8,19.2-3.3,28.8-5.1c2.8-0.5,5.7-1.8,8,1s1.5,6-0.2,8.4c-5.1,7.4-10,15-16.1,21.5
			c-17.9,19.5-40.1,32.6-65.3,40.5C115,216.3,101.3,218,86.5,218.3z"/>
	</g>
</g>
</svg>
